<svg xmlns="http://www.w3.org/2000/svg" viewBox="0 0 1024 1024" width="1024" height="1024">
<defs>
<linearGradient id="bg" x1="0" y1="0" x2="0" y2="1"><stop offset="0" stop-color="#1f2219"/><stop offset="1" stop-color="#0a0b08"/></linearGradient>
<linearGradient id="card" x1="0" y1="0" x2="0" y2="1"><stop offset="0" stop-color="#DCFF3A"/><stop offset="1" stop-color="#C2EE00"/></linearGradient>
<filter id="shadow" x="-30%" y="-30%" width="160%" height="160%"><feDropShadow dx="0" dy="18" stdDeviation="22" flood-color="#000" flood-opacity=".35"/></filter>
</defs>
<rect x="100" y="100" width="824" height="824" rx="186" fill="url(#bg)"/>
<rect x="100.5" y="100.5" width="823" height="823" rx="185.5" fill="none" stroke="#ffffff" stroke-opacity=".08"/>
<path d="M316.0,192.0 L634.0,192.0 L752.0,310.0 L752.0,788.0 Q752.0,832.0 708.0,832.0 L316.0,832.0 Q272.0,832.0 272.0,788.0 L272.0,236.0 Q272.0,192.0 316.0,192.0 Z" fill="url(#card)" filter="url(#shadow)"/>
<rect x="377.0" y="482.0" width="118" height="118" rx="22" fill="#0c0d09"/>
<rect x="529.0" y="634.0" width="118" height="118" rx="22" fill="#0c0d09"/>
<rect x="529.0" y="482.0" width="118" height="118" rx="22" fill="#0c0d09" fill-opacity=".2"/>
<rect x="377.0" y="634.0" width="118" height="118" rx="22" fill="#0c0d09" fill-opacity=".2"/>
</svg>